<?xml version="1.0" standalone="no"?>
<!DOCTYPE svg PUBLIC "-//W3C//DTD SVG 20010904//EN"
 "http://www.w3.org/TR/2001/REC-SVG-20010904/DTD/svg10.dtd">
<svg version="1.0" xmlns="http://www.w3.org/2000/svg"
 width="618.000000pt" height="618.000000pt" viewBox="0 0 618.000000 618.000000"
 preserveAspectRatio="xMidYMid meet">

<g transform="translate(0.000000,618.000000) scale(0.100000,-0.100000)"
fill="#000000" stroke="none">
<path d="M2992 5908 c2 -6 10 -14 16 -16 7 -2 10 2 6 12 -7 18 -28 22 -22 4z"/>
<path d="M3015 5851 c-11 -3 -29 -11 -40 -18 -16 -9 -17 -14 -8 -24 10 -10 16
-9 31 4 10 9 22 14 25 11 4 -4 9 1 13 10 8 21 4 24 -21 17z"/>
<path d="M2962 5761 c-27 -23 -30 -30 -19 -40 11 -9 17 -8 27 4 25 31 50 38
69 21 16 -14 20 -15 30 -2 10 12 8 17 -11 28 -37 21 -61 18 -96 -11z"/>
<path d="M3025 5720 c-4 -6 -10 -8 -15 -5 -15 9 -109 -60 -101 -74 8 -13 60 9
81 34 16 20 30 19 60 -5 14 -11 31 -20 38 -20 19 0 14 28 -7 40 -11 5 -26 17
-35 25 -9 10 -17 11 -21 5z"/>
<path d="M2972 5636 c-15 -13 -42 -31 -59 -41 -32 -19 -45 -45 -22 -45 6 0 38
18 70 39 l58 39 47 -33 c44 -32 64 -36 64 -15 0 12 -79 65 -108 73 -15 3 -32
-2 -50 -17z"/>
<path d="M2929 5543 c-41 -26 -76 -48 -78 -49 -2 -2 -1 -10 2 -18 5 -13 17 -9
66 20 33 20 65 42 72 50 16 20 21 19 90 -26 44 -28 66 -37 73 -30 7 7 8 13 1
18 -63 43 -128 82 -138 82 -8 0 -47 -21 -88 -47z"/>
<path d="M3010 5520 c-14 -4 -55 -27 -92 -51 -37 -24 -74 -48 -82 -54 -10 -6
-13 -15 -8 -23 6 -9 30 1 94 41 80 51 135 76 123 57 -5 -8 53 -53 104 -80 19
-10 25 -10 32 1 5 9 -9 23 -49 47 -31 19 -66 42 -77 52 -14 12 -27 15 -45 10z"/>
<path d="M2970 5438 c-14 -11 -60 -41 -102 -65 -52 -31 -75 -49 -71 -59 4 -11
22 -5 82 27 42 23 85 50 96 59 37 32 45 32 79 6 58 -44 138 -87 152 -82 22 8
16 22 -13 35 -16 7 -57 31 -91 53 -75 49 -98 53 -132 26z"/>
<path d="M3015 5392 c-37 -8 -173 -105 -168 -119 6 -15 81 23 135 68 l32 26
59 -40 c48 -33 60 -38 67 -26 7 10 0 19 -26 35 -19 12 -45 30 -57 41 -12 11
-31 18 -42 15z"/>
<path d="M2990 5322 c0 -8 -90 -65 -182 -116 -42 -23 -55 -35 -49 -45 7 -10
30 -1 107 43 55 30 110 64 124 75 24 19 24 19 65 -8 91 -62 208 -122 219 -111
13 13 6 19 -79 65 -38 21 -90 52 -115 68 -41 29 -90 44 -90 29z"/>
<path d="M2960 5233 c-19 -13 -58 -38 -87 -54 -34 -20 -50 -35 -46 -44 6 -17
51 3 139 62 l52 34 62 -40 c68 -44 80 -48 80 -28 0 18 -97 80 -110 72 -6 -4
-9 -1 -8 6 5 23 -46 18 -82 -8z"/>
<path d="M2959 5164 c-24 -18 -93 -58 -154 -90 -128 -66 -127 -65 -116 -82 5
-9 22 -4 67 19 95 51 217 121 243 141 14 10 27 15 30 10 15 -21 102 -73 225
-135 56 -28 81 -36 89 -28 6 6 9 12 6 13 -2 2 -31 16 -64 32 -72 35 -168 91
-213 125 -46 34 -62 33 -113 -5z"/>
<path d="M2974 5110 c-10 -11 -54 -39 -96 -63 -54 -31 -74 -47 -68 -56 6 -11
12 -11 31 -1 61 32 138 83 134 90 -4 6 1 8 38 11 6 1 54 -24 104 -55 51 -31
94 -56 97 -56 2 0 6 7 10 15 4 10 -8 21 -37 36 -23 12 -67 38 -97 58 -63 43
-89 47 -116 21z"/>
<path d="M2935 5018 c-38 -26 -108 -66 -155 -90 -47 -23 -87 -44 -89 -45 -3
-2 0 -8 6 -14 12 -12 52 5 175 75 50 28 84 54 81 60 -3 6 -3 8 2 4 4 -4 20 0
35 9 27 16 30 15 82 -20 71 -47 200 -117 216 -117 35 0 3 30 -75 70 -47 25
-107 61 -132 80 -25 18 -52 34 -61 35 -8 0 -46 -21 -85 -47z"/>
<path d="M2999 4991 c-1 -3 -1 -10 0 -14 1 -5 -3 -6 -8 -3 -4 3 -46 -17 -92
-45 -46 -27 -128 -71 -182 -96 -89 -43 -109 -61 -80 -70 16 -6 275 130 330
172 25 19 51 32 57 28 6 -4 41 -26 78 -50 105 -68 297 -158 309 -146 7 7 -34
34 -136 87 -81 42 -168 91 -193 108 -43 30 -80 43 -83 29z"/>
<path d="M2970 4910 c-14 -11 -54 -37 -90 -57 -94 -52 -100 -57 -91 -72 9 -14
44 3 167 81 l62 39 68 -44 c99 -64 152 -89 159 -76 4 6 5 13 2 16 -17 17 -224
133 -236 133 -9 0 -27 -9 -41 -20z"/>
<path d="M2940 4823 c-36 -24 -110 -67 -165 -95 -114 -58 -125 -65 -103 -73
19 -8 187 75 279 137 l66 44 34 -23 c19 -13 40 -21 47 -18 7 3 11 1 8 -4 -7
-11 23 -31 153 -99 62 -32 107 -50 109 -44 6 19 0 23 -98 75 -110 57 -186 103
-216 130 -16 13 -24 15 -29 7 -5 -7 -10 -8 -14 -3 -3 6 -35 -10 -71 -34z"/>
<path d="M2943 4760 c-28 -20 -110 -67 -182 -104 -122 -63 -143 -78 -123 -89
13 -9 246 112 339 175 l42 29 51 -36 c55 -39 272 -155 289 -155 6 0 11 7 11
14 0 9 -43 37 -102 66 -57 28 -126 67 -155 86 -55 36 -68 41 -57 22 4 -8 3
-10 -2 -5 -5 5 -9 14 -9 20 0 25 -52 13 -102 -23z"/>
<path d="M2936 4689 c-70 -47 -213 -122 -340 -179 -56 -25 -66 -33 -56 -44 10
-12 25 -8 98 28 172 84 248 125 317 169 54 36 71 43 80 32 17 -21 162 -104
293 -168 95 -46 126 -57 132 -47 6 10 -35 35 -158 97 -92 46 -189 100 -217
120 -27 21 -57 37 -65 38 -8 0 -46 -20 -84 -46z"/>
<path d="M2960 4638 c-28 -24 -344 -186 -487 -250 -23 -10 -29 -18 -23 -28 7
-11 14 -11 42 2 18 9 58 26 88 39 93 39 319 158 381 200 l59 40 46 -36 c50
-37 410 -220 457 -231 20 -5 27 -2 27 9 0 9 -10 19 -22 22 -45 13 -364 175
-428 217 -36 23 -74 43 -85 44 -11 1 -36 -11 -55 -28z"/>
<path d="M2965 4576 c-28 -22 -172 -102 -280 -156 -28 -14 -52 -26 -54 -28 -3
-1 0 -7 6 -13 14 -14 195 72 310 146 l72 46 46 -31 c25 -17 50 -28 57 -24 6 4
8 3 4 -4 -8 -14 250 -146 271 -138 12 5 13 9 3 21 -7 8 -17 15 -22 15 -31 0
-307 155 -323 181 -11 17 -60 9 -90 -15z"/>
<path d="M2939 4493 c-67 -45 -398 -212 -461 -232 -40 -13 -65 -36 -49 -45 22
-14 400 166 521 246 l64 44 86 -54 c84 -53 340 -182 412 -208 25 -9 40 -10 44
-3 8 14 -3 23 -46 39 -71 27 -334 162 -403 207 -40 26 -79 47 -88 48 -8 1 -44
-18 -80 -42z"/>
<path d="M2940 4429 c-60 -42 -304 -168 -412 -213 -47 -20 -65 -33 -61 -42 4
-10 13 -12 27 -8 50 16 368 175 444 222 l83 52 57 -39 c112 -75 464 -247 483
-236 19 12 7 23 -53 50 -110 48 -339 165 -406 208 -36 22 -74 41 -86 42 -12 1
-46 -15 -76 -36z"/>
<path d="M3016 4402 c-10 -2 -48 -23 -85 -47 -74 -48 -209 -117 -381 -195
-127 -57 -141 -66 -118 -75 26 -10 379 156 508 239 72 47 94 54 105 36 15 -25
208 -131 374 -205 79 -35 106 -43 115 -34 8 8 8 13 0 15 -110 42 -425 208
-479 254 -11 9 -28 15 -39 12z"/>
<path d="M2990 4332 c0 -23 -306 -182 -565 -292 -93 -40 -172 -74 -174 -76 -3
-3 0 -9 5 -14 12 -12 109 24 312 117 201 92 307 149 305 161 -2 6 4 9 12 6 8
-3 41 12 74 35 l60 40 68 -46 c141 -96 674 -336 696 -314 6 6 9 12 6 14 -2 2
-62 27 -134 57 -174 71 -474 218 -559 275 -52 34 -72 42 -78 33 -6 -10 -8 -10
-8 0 0 6 -4 12 -10 12 -5 0 -10 -4 -10 -8z"/>
<path d="M2936 4227 c-65 -44 -300 -163 -443 -223 -66 -28 -93 -44 -93 -56 0
-23 -4 -23 77 13 37 16 91 40 118 52 131 56 344 171 409 221 8 5 35 -7 75 -33
78 -50 259 -143 423 -216 90 -41 124 -52 129 -43 11 18 7 20 -116 73 -193 83
-399 191 -450 236 -31 26 -65 20 -129 -24z"/>
<path d="M2943 4166 c-94 -63 -396 -212 -580 -286 -79 -31 -94 -42 -74 -54 8
-5 49 11 271 105 111 46 317 153 386 200 l72 47 54 -38 c84 -60 581 -300 620
-300 4 0 8 6 8 14 0 7 -24 24 -52 36 -29 12 -75 33 -103 45 -27 13 -72 33
-100 45 -57 26 -248 120 -285 141 -13 8 -48 31 -77 51 -33 25 -54 34 -59 27
-4 -7 -9 -8 -13 -1 -3 5 -33 -9 -68 -32z"/>
<path d="M2940 4098 c-67 -48 -296 -163 -480 -242 -148 -63 -152 -66 -142 -83
13 -21 492 202 634 294 l66 44 69 -46 c117 -79 592 -301 620 -291 26 10 11 22
-80 60 -224 95 -424 194 -527 260 -36 23 -74 42 -85 43 -11 0 -45 -17 -75 -39z"/>
<path d="M2949 4037 c-57 -41 -341 -186 -444 -227 -87 -34 -95 -39 -89 -54 5
-13 11 -13 45 -1 84 30 398 188 392 198 -3 6 -1 7 5 3 11 -6 122 55 142 79 9
11 24 4 78 -31 60 -40 220 -122 415 -213 61 -29 87 -33 87 -12 0 4 -57 34
-127 66 -172 80 -313 154 -370 195 -27 18 -55 34 -64 35 -9 1 -40 -16 -70 -38z"/>
<path d="M2963 3981 c-18 -15 -52 -37 -75 -50 -70 -37 -228 -116 -298 -149
-115 -53 -134 -61 -230 -101 -55 -23 -96 -46 -98 -55 -2 -9 -1 -16 2 -16 5 0
151 58 175 70 63 31 150 70 155 70 10 0 253 121 311 155 28 16 63 39 79 52 27
23 29 23 55 6 142 -94 430 -236 631 -312 66 -25 62 -25 58 -5 -2 10 -53 37
-133 70 -174 73 -415 193 -495 246 -36 24 -74 44 -85 45 -11 1 -35 -11 -52
-26z"/>
<path d="M3015 3942 c-11 -2 -33 -14 -50 -27 -100 -74 -473 -251 -792 -375
-35 -14 -63 -30 -63 -37 0 -7 4 -13 9 -13 9 0 134 45 166 60 11 5 83 36 160
69 211 89 356 161 349 173 -4 7 -2 8 4 4 13 -8 84 27 161 78 29 20 55 36 57
36 3 0 33 -18 67 -40 73 -48 249 -139 395 -204 166 -75 391 -164 397 -158 13
13 3 30 -21 36 -22 6 -153 60 -368 154 -119 51 -354 175 -402 211 -29 22 -57
35 -69 33z"/>
<path d="M2971 3855 c-63 -53 -311 -177 -588 -295 -97 -41 -130 -59 -124 -69
10 -15 64 5 301 111 188 85 349 168 410 213 l46 34 75 -49 c95 -61 289 -158
478 -239 165 -71 164 -71 168 -51 2 10 -22 25 -80 49 -45 19 -115 49 -155 68
-41 18 -75 33 -78 33 -12 0 -251 124 -302 156 -31 21 -62 37 -69 37 -7 0 -11
5 -10 10 4 19 -46 13 -72 -8z"/>
<path d="M2947 3773 c-66 -49 -285 -159 -497 -249 -246 -105 -231 -97 -221
-113 10 -16 5 -17 231 81 275 120 384 175 507 255 l51 34 76 -50 c120 -78 611
-308 690 -322 35 -7 27 18 -11 34 -21 9 -92 39 -158 67 -251 107 -400 181
-516 256 -38 24 -77 44 -87 44 -9 0 -39 -17 -65 -37z"/>
<path d="M2950 3707 c-59 -42 -356 -190 -510 -254 -52 -22 -126 -53 -163 -68
-37 -16 -70 -32 -73 -37 -13 -20 29 -17 87 7 35 15 91 38 124 51 168 68 464
215 541 269 l61 42 58 -40 c70 -48 203 -118 345 -182 58 -25 119 -53 135 -61
70 -32 174 -74 184 -74 24 0 9 26 -21 39 -373 160 -590 269 -664 334 -16 13
-24 15 -29 7 -4 -7 -10 -8 -14 -3 -3 5 -31 -8 -61 -30z"/>
<path d="M2980 3665 c-28 -33 -299 -176 -485 -255 -55 -23 -118 -50 -140 -60
-68 -29 -187 -77 -252 -102 -35 -12 -63 -29 -63 -35 0 -21 24 -15 152 36 340
135 622 266 612 283 -4 7 -3 8 4 4 14 -9 95 32 155 78 26 20 49 36 52 36 3 0
27 -16 53 -35 99 -71 501 -260 782 -368 125 -48 150 -54 150 -33 0 9 -5 16
-10 16 -18 0 -235 87 -430 173 -201 88 -383 179 -470 235 -61 39 -93 47 -110
27z"/>
<path d="M2999 3611 c-1 -3 0 -10 1 -16 1 -5 -1 -7 -5 -3 -4 3 -46 -17 -93
-46 -127 -76 -423 -216 -612 -288 -30 -12 -56 -22 -58 -23 -1 -1 0 -9 3 -17 5
-13 21 -10 98 22 263 108 511 228 610 295 37 25 69 45 72 45 2 0 33 -18 67
-41 65 -42 310 -167 408 -208 30 -13 91 -39 135 -58 172 -74 175 -75 175 -55
0 13 -22 27 -82 52 -140 56 -348 149 -443 198 -83 42 -223 126 -235 141 -7 8
-40 10 -41 2z"/>
<path d="M2948 3510 c-56 -40 -239 -136 -348 -184 -36 -16 -87 -39 -115 -51
-90 -40 -288 -122 -377 -156 -49 -19 -88 -40 -88 -46 0 -17 24 -16 63 1 18 7
102 41 187 76 310 124 560 243 682 323 l66 45 54 -39 c47 -33 366 -199 383
-199 4 0 37 -14 73 -31 37 -17 139 -60 227 -96 88 -36 166 -67 173 -70 7 -3
12 2 12 13 0 15 -32 32 -148 78 -243 97 -260 104 -447 197 -191 94 -220 109
-275 149 -48 34 -61 33 -122 -10z"/>
<path d="M2950 3445 c-25 -18 -106 -64 -180 -102 -123 -63 -174 -87 -310 -145
-25 -11 -59 -26 -76 -34 -64 -28 -435 -174 -444 -174 -6 0 -10 -7 -10 -16 0
-23 31 -14 242 70 384 153 760 330 798 377 3 3 15 11 27 18 19 10 31 5 90 -33
131 -85 438 -229 743 -349 279 -109 270 -107 270 -83 0 7 -21 21 -47 31 -114
42 -286 111 -383 152 -58 25 -123 52 -145 61 -90 38 -374 182 -425 217 -73 50
-95 51 -150 10z"/>
<path d="M2950 3378 c-48 -34 -337 -183 -455 -233 -87 -37 -283 -117 -335
-137 -62 -23 -75 -32 -66 -46 18 -30 722 284 865 386 l55 38 95 -60 c115 -72
324 -173 566 -273 168 -70 255 -100 261 -91 3 5 2 13 -2 17 -9 7 -18 11 -259
112 -82 34 -181 77 -220 94 -38 18 -87 40 -107 48 -60 25 -240 127 -280 158
-24 19 -39 25 -44 18 -4 -7 -9 -8 -13 -1 -4 6 -29 -6 -61 -30z"/>
<path d="M2940 3308 c-95 -68 -369 -200 -670 -323 -63 -26 -116 -48 -117 -49
-1 -1 1 -7 6 -14 5 -9 45 3 147 44 275 111 512 224 646 310 l67 43 68 -46 c67
-45 324 -175 453 -228 36 -15 83 -35 105 -45 78 -35 169 -70 182 -70 31 0 9
29 -34 45 -48 18 -220 90 -303 127 -109 48 -330 163 -388 200 -35 23 -73 42
-85 43 -12 1 -47 -16 -77 -37z"/>
<path d="M2945 3244 c-123 -84 -454 -238 -800 -374 -119 -47 -130 -53 -121
-68 4 -7 24 -4 54 8 366 139 732 306 872 400 59 38 67 41 87 29 98 -62 244
-140 378 -203 213 -99 535 -228 554 -221 23 9 4 20 -139 78 -327 134 -363 150
-549 244 -79 40 -165 88 -191 107 -26 18 -57 33 -71 33 -13 0 -46 -15 -74 -33z"/>
<path d="M2950 3180 c-151 -103 -558 -286 -1012 -455 -27 -10 -48 -24 -48 -31
0 -20 3 -19 139 31 357 131 782 324 924 419 l67 46 44 -34 c52 -39 332 -181
501 -253 320 -137 527 -215 538 -204 13 13 1 28 -30 36 -16 3 -41 12 -58 19
-16 7 -79 33 -140 56 -341 134 -687 297 -797 376 -30 21 -50 29 -54 23 -4 -7
-9 -8 -13 -1 -3 5 -29 -6 -61 -28z"/>
<path d="M2940 3110 c-76 -52 -225 -129 -388 -201 -75 -34 -156 -69 -179 -80
-23 -10 -44 -19 -48 -19 -3 0 -24 -8 -48 -19 -54 -24 -271 -107 -407 -157
-120 -43 -117 -41 -104 -54 11 -11 135 26 269 80 307 122 420 168 485 198 205
94 362 173 424 215 38 26 71 47 73 47 2 0 25 -15 51 -32 106 -74 314 -174 712
-342 65 -28 123 -47 131 -43 3 1 12 -3 20 -10 8 -6 77 -34 153 -63 107 -39
141 -48 147 -38 4 7 7 13 6 15 -2 1 -66 25 -142 53 -171 63 -464 181 -565 227
-41 19 -111 51 -155 71 -115 53 -254 129 -295 161 -47 38 -74 36 -140 -9z"/>
<path d="M2941 3044 c-115 -77 -617 -313 -776 -364 -22 -7 -58 -21 -80 -30
-22 -10 -106 -42 -187 -71 -96 -34 -148 -57 -148 -67 0 -10 8 -12 32 -7 18 4
39 11 48 16 8 4 60 23 115 42 355 123 886 362 1026 462 l47 33 53 -38 c59 -41
305 -167 464 -237 116 -51 450 -184 545 -218 248 -87 225 -81 233 -61 4 10
-16 21 -70 40 -42 14 -79 23 -84 21 -4 -3 -9 -2 -11 3 -1 4 -60 29 -129 55
-410 152 -882 372 -965 449 -16 14 -24 16 -29 8 -5 -8 -10 -8 -14 -2 -3 5 -34
-10 -70 -34z"/>
<path d="M2932 2972 c-37 -24 -148 -84 -247 -132 -187 -90 -242 -114 -461
-202 -125 -51 -162 -75 -107 -71 30 3 209 74 420 169 273 122 449 217 437 236
-4 7 -2 8 5 4 6 -4 18 -3 26 4 10 9 24 4 62 -22 93 -64 238 -139 418 -218 66
-28 134 -58 150 -65 17 -7 95 -39 174 -71 116 -46 145 -54 152 -43 6 10 3 16
-9 21 -9 4 -71 28 -136 54 -66 25 -127 50 -135 55 -9 4 -90 40 -181 80 -156
68 -352 168 -412 211 -16 10 -33 16 -38 13 -6 -4 -9 -1 -8 6 6 28 -45 14 -110
-29z"/>
<path d="M2945 2914 c-65 -45 -241 -134 -430 -219 -82 -37 -151 -68 -152 -69
-1 -1 2 -8 7 -16 8 -12 13 -13 30 -2 11 7 53 25 93 41 169 68 476 229 507 266
9 11 26 4 84 -35 96 -64 254 -142 268 -134 7 4 8 3 4 -4 -4 -7 -3 -12 3 -12 5
0 51 -20 103 -44 156 -74 212 -95 222 -85 15 14 5 19 -154 89 -182 80 -381
182 -443 226 -26 19 -57 34 -70 33 -12 0 -44 -16 -72 -35z"/>
<path d="M2979 2874 c-18 -21 -122 -81 -282 -161 -109 -54 -136 -72 -125 -80
10 -9 50 7 173 69 88 44 185 97 216 118 l56 38 69 -45 c71 -46 402 -213 422
-213 7 0 12 6 12 13 0 6 -80 51 -178 99 -97 48 -206 106 -242 129 -72 47 -103
55 -121 33z"/>
<path d="M2955 2789 c-43 -32 -51 -44 -37 -53 5 -3 28 8 51 24 22 17 43 30 46
30 2 0 29 -16 59 -35 59 -38 76 -43 76 -22 0 7 -17 23 -39 35 -21 12 -44 29
-51 37 -19 23 -61 17 -105 -16z"/>
<path d="M2849 2683 c-1 -4 -2 -89 -2 -188 l-2 -180 -31 -55 c-57 -101 -125
-132 -364 -165 l-165 -23 695 -1 c636 0 777 5 600 23 -192 20 -301 60 -352
130 -50 70 -61 130 -56 309 5 142 4 158 -11 155 -13 -3 -18 -25 -25 -123 -9
-138 2 -242 35 -308 23 -46 102 -127 125 -127 8 0 14 -4 14 -10 0 -6 -109 -10
-307 -10 l-307 0 45 29 c85 55 126 122 141 233 12 91 -1 309 -19 316 -7 2 -13
0 -14 -5z"/>
<path d="M3693 2073 c9 -2 23 -2 30 0 6 3 -1 5 -18 5 -16 0 -22 -2 -12 -5z"/>
<path d="M1139 2027 c-46 -31 -58 -75 -32 -119 40 -69 129 -66 165 4 19 35 19
39 2 73 -16 34 -57 65 -87 65 -8 0 -29 -10 -48 -23z m105 -18 c33 -26 35 -75
5 -113 -45 -57 -139 -17 -139 59 0 69 76 100 134 54z"/>
<path d="M1159 1981 c-21 -16 -22 -22 -11 -45 18 -41 72 -34 86 11 5 16 1 25
-16 37 -28 20 -31 20 -59 -3z"/>
<path d="M1146 1798 c-3 -7 -7 -111 -10 -232 l-5 -218 22 6 c12 3 27 6 32 6 6
0 11 74 13 198 1 108 5 209 8 225 5 25 3 27 -26 27 -17 0 -32 -6 -34 -12z"/>
<path d="M1330 1663 c0 -82 -3 -185 -7 -230 -6 -85 -1 -97 34 -75 9 6 23 218
23 354 0 4 83 -76 184 -178 161 -161 187 -183 203 -174 16 11 18 32 20 232 2
193 0 219 -13 214 -9 -3 -20 -6 -25 -6 -5 0 -9 -78 -9 -182 l0 -183 -130 130
c-71 72 -151 156 -177 187 -36 43 -55 57 -75 57 l-28 1 0 -147z"/>
<path d="M1890 1801 l-25 -9 28 -1 27 -1 0 -210 c0 -209 0 -211 -22 -220 -21
-8 -21 -9 7 -9 57 -1 160 20 211 43 55 26 134 90 134 111 0 7 6 18 14 24 8 7
17 34 21 61 12 91 -43 163 -148 195 -56 17 -214 27 -247 16z m220 -37 c82 -34
123 -105 108 -186 -17 -92 -84 -169 -170 -195 -85 -25 -84 -26 -77 84 4 54 7
149 8 212 l1 113 48 -7 c26 -4 63 -13 82 -21z"/>
<path d="M2380 1800 c-24 -6 -25 -9 -23 -84 4 -123 37 -245 80 -295 106 -125
270 -75 330 99 23 64 68 268 61 275 -2 2 -15 6 -31 10 -24 6 -27 4 -27 -17 0
-32 -46 -250 -65 -313 -25 -77 -36 -87 -95 -87 -125 1 -189 114 -190 337 0 71
-7 83 -40 75z"/>
<path d="M2913 1622 c-2 -103 -5 -206 -8 -229 l-6 -43 35 0 36 0 0 110 0 110
69 0 c72 0 101 6 101 21 0 5 -39 9 -86 9 l-87 0 7 87 c4 48 13 91 19 96 7 4
44 6 83 4 49 -3 77 0 89 10 16 11 -1 13 -116 13 l-134 0 -2 -188z"/>
<path d="M3366 1790 c-73 -23 -110 -58 -136 -127 -36 -96 -20 -193 40 -253
110 -110 370 -57 409 85 16 60 13 155 -7 191 -28 52 -69 94 -106 109 -47 20
-128 18 -200 -5z m145 -14 c118 -50 156 -218 76 -337 -44 -65 -133 -87 -206
-49 -151 77 -146 298 9 380 42 23 77 25 121 6z"/>
<path d="M3755 1800 c-3 -6 4 -10 16 -10 l22 0 -7 -221 -8 -220 29 3 28 3 6
145 c4 80 7 178 8 219 l1 74 43 -6 c122 -16 133 -174 16 -226 l-37 -17 36 -40
c21 -21 68 -66 105 -98 62 -53 70 -58 93 -48 13 7 24 15 24 19 -1 5 -26 27
-58 51 -31 23 -77 61 -101 84 -36 34 -41 44 -29 52 50 37 80 69 98 104 20 38
20 42 5 72 -25 48 -87 70 -195 70 -49 0 -92 -4 -95 -10z"/>
<path d="M5006 1801 c-18 -7 -18 -8 -2 -14 17 -7 17 -20 10 -185 -11 -220 -10
-240 4 -254 9 -9 16 -8 29 4 10 8 25 18 33 21 12 4 11 6 -2 6 -13 1 -18 10
-19 29 -2 83 2 295 8 345 5 55 5 57 -18 56 -13 0 -33 -4 -43 -8z"/>
<path d="M4347 1637 c-30 -13 -57 -56 -57 -91 0 -32 20 -54 75 -84 43 -23 50
-31 50 -57 0 -36 -28 -44 -72 -22 -23 12 -32 13 -46 2 -9 -7 -17 -15 -17 -18
0 -12 71 -28 98 -22 38 8 82 51 82 78 0 30 -15 47 -75 87 -27 19 -53 38 -57
44 -12 18 -9 56 5 57 34 4 61 -2 78 -17 15 -14 21 -14 34 -4 23 19 18 28 -21
45 -43 18 -41 18 -77 2z"/>
<path d="M4797 1632 c-10 -10 -17 -20 -17 -23 0 -8 55 -4 69 5 12 8 11 11 -4
23 -24 17 -29 17 -48 -5z"/>
<path d="M4683 1633 c15 -4 17 -20 17 -149 l0 -145 23 7 c12 3 23 7 24 8 0 0
3 65 6 144 l4 142 -46 -1 c-25 -1 -38 -3 -28 -6z"/>
<path d="M4551 1416 c-20 -21 -21 -27 -9 -45 16 -26 20 -26 42 -2 13 14 14 24
7 45 -6 14 -12 26 -14 26 -2 0 -14 -11 -26 -24z"/>
<path d="M4861 1416 c-20 -21 -21 -27 -9 -45 16 -26 20 -26 42 -2 13 14 14 24
7 45 -6 14 -12 26 -14 26 -2 0 -14 -11 -26 -24z"/>
<path d="M5195 1420 c-17 -19 -15 -70 4 -70 20 0 42 39 35 64 -7 31 -15 32
-39 6z"/>
<path d="M3127 1180 c-14 -11 -27 -34 -30 -52 -3 -18 -6 -40 -8 -48 -1 -8 -1
-54 -1 -102 2 -82 3 -88 23 -88 18 0 20 4 14 31 -4 17 -4 55 0 84 5 42 11 54
28 60 l22 8 -22 4 c-20 4 -23 11 -23 49 0 40 2 44 25 44 16 0 25 6 25 15 0 21
-23 19 -53 -5z"/>
<path d="M4125 1043 c0 -92 4 -148 10 -150 6 -2 20 3 30 12 11 8 14 15 8 15
-10 0 -13 34 -13 135 0 122 -2 135 -17 135 -16 0 -18 -14 -18 -147z"/>
<path d="M2227 1153 c-14 -13 -6 -24 15 -21 27 4 36 28 11 28 -11 0 -23 -3
-26 -7z"/>
<path d="M2486 1144 c-4 -11 0 -15 16 -12 12 2 23 9 26 16 6 18 -35 15 -42 -4z"/>
<path d="M3853 1153 c-7 -3 -13 -16 -13 -31 0 -14 -7 -34 -17 -44 -9 -11 -11
-18 -5 -18 8 0 12 -23 12 -68 0 -84 15 -111 51 -91 20 11 21 14 7 17 -15 3
-18 15 -18 72 0 60 3 69 20 75 11 4 18 10 15 15 -3 5 -12 7 -20 4 -10 -4 -15
5 -17 34 -2 26 -7 37 -15 35z"/>
<path d="M1587 1069 c-26 -20 -34 -53 -19 -75 4 -6 22 -19 40 -29 35 -21 44
-55 14 -55 -10 0 -23 5 -30 12 -8 8 -15 8 -27 -2 -34 -29 43 -42 83 -14 36 25
28 59 -23 94 -25 17 -45 37 -45 45 0 18 41 20 58 3 9 -9 15 -9 24 0 14 14 4
26 -28 36 -14 4 -30 -1 -47 -15z"/>
<path d="M1743 1070 c-37 -22 -48 -54 -39 -105 7 -36 46 -75 76 -75 10 0 28 9
41 20 l24 19 -37 -6 c-31 -5 -38 -2 -54 21 -19 30 -15 37 36 56 67 25 73 48
19 75 -34 18 -28 19 -66 -5z m64 -36 c2 -6 -12 -18 -32 -27 l-35 -17 0 28 c0
40 18 56 44 39 11 -8 21 -18 23 -23z"/>
<path d="M1980 1082 c-19 -2 -38 -9 -42 -15 -6 -9 -8 -9 -8 1 0 7 -13 12 -32
11 -18 0 -27 -3 -20 -6 8 -3 12 -32 12 -94 0 -69 3 -89 14 -89 10 0 15 21 18
75 3 42 7 78 10 81 3 3 19 7 35 9 28 3 31 -1 71 -81 42 -84 58 -100 68 -66 3
9 21 50 40 90 38 80 38 82 24 82 -6 0 -25 -29 -42 -65 -18 -36 -35 -65 -38
-65 -3 0 -16 27 -30 61 -14 33 -29 63 -35 67 -5 4 -26 6 -45 4z"/>
<path d="M2220 1080 c-14 -4 -19 -8 -12 -9 9 -1 12 -26 12 -91 0 -79 2 -90 18
-90 20 0 54 20 35 20 -10 0 -13 25 -13 90 0 50 -3 90 -7 89 -5 -1 -19 -5 -33
-9z"/>
<path d="M2353 1071 c-36 -23 -47 -50 -39 -96 14 -71 68 -105 112 -69 19 15
19 15 -2 11 -26 -5 -34 0 -57 33 -19 28 -23 90 -6 107 9 9 19 9 39 -2 30 -15
60 -6 38 12 -27 21 -53 23 -85 4z"/>
<path d="M2482 1083 c-10 -4 -10 -8 -1 -19 8 -10 10 -39 5 -94 -6 -72 -5 -80
11 -80 22 0 55 20 35 20 -11 0 -13 20 -11 87 3 88 -1 99 -39 86z"/>
<path d="M2630 1072 c-19 -9 -41 -28 -48 -42 -26 -52 14 -140 65 -140 12 0 37
13 55 29 29 26 33 35 33 80 0 76 -42 105 -105 73z m50 -22 c34 -34 23 -140
-15 -140 -22 0 -55 50 -55 84 0 32 23 76 41 76 5 0 18 -9 29 -20z"/>
<path d="M2812 1079 c-25 -10 -47 -50 -39 -73 3 -8 24 -27 46 -41 27 -17 39
-30 35 -40 -7 -18 -35 -20 -52 -3 -9 9 -15 9 -23 1 -31 -31 38 -46 79 -17 35
24 28 59 -18 90 -42 28 -54 64 -22 64 10 0 23 -5 30 -12 10 -9 16 -9 28 4 14
14 13 16 -13 25 -16 6 -38 7 -51 2z"/>
<path d="M3242 1075 c-64 -28 -78 -123 -25 -165 35 -27 57 -25 95 9 29 26 33
35 33 81 0 42 -4 55 -24 71 -27 22 -35 23 -79 4z m52 -27 c29 -41 15 -138 -19
-138 -22 0 -55 50 -55 84 0 35 24 76 45 76 8 0 21 -10 29 -22z"/>
<path d="M3543 1070 c-55 -33 -54 -127 1 -165 28 -20 49 -19 77 5 l24 19 -36
-6 c-30 -4 -39 -1 -53 18 -9 13 -16 27 -16 30 0 4 25 19 55 33 61 28 64 45 14
71 -34 18 -28 19 -66 -5z m63 -31 c8 -14 -5 -26 -38 -34 -25 -6 -28 -4 -28 17
0 45 42 56 66 17z"/>
<path d="M3710 1077 c-19 -9 -26 -22 -28 -49 -3 -33 0 -38 37 -59 42 -23 52
-45 27 -55 -8 -3 -23 -1 -33 5 -26 13 -56 -4 -33 -19 25 -16 69 -11 90 10 34
34 24 56 -44 103 -14 10 -26 24 -26 32 0 17 41 20 56 5 5 -5 15 -6 24 0 33 21
-32 46 -70 27z"/>
<path d="M3970 1078 c-15 -6 -20 -12 -12 -15 7 -3 18 0 25 5 17 15 34 2 42
-31 7 -26 5 -27 -29 -27 -40 0 -76 -28 -76 -60 0 -25 34 -60 58 -60 29 0 34
12 9 24 -32 16 -32 80 0 84 25 4 48 -30 39 -55 -11 -28 4 -53 32 -53 20 0 23
3 14 12 -7 7 -12 41 -12 82 0 39 -4 76 -8 83 -11 17 -54 24 -82 11z"/>
<path d="M4251 1064 c-74 -62 -11 -204 75 -165 13 6 24 15 24 21 0 7 -7 7 -21
-1 -17 -9 -25 -7 -45 12 -35 33 -30 46 26 70 53 23 61 37 33 61 -34 30 -59 30
-92 2z m53 -10 c25 -10 19 -32 -13 -49 -34 -17 -45 -8 -35 30 6 25 19 30 48
19z"/>
<path d="M4432 1079 c-25 -10 -47 -50 -39 -73 3 -8 24 -27 46 -41 28 -17 39
-30 34 -41 -4 -11 -12 -14 -27 -9 -38 11 -51 10 -51 -5 0 -21 51 -25 81 -5 37
24 32 60 -15 91 -22 14 -42 32 -45 40 -8 20 20 29 49 16 18 -8 26 -8 35 2 14
18 -36 37 -68 25z"/>
<path d="M3390 1060 c7 -13 8 -48 4 -95 -6 -72 -6 -75 15 -75 19 0 21 5 21 68
0 74 16 110 44 99 10 -4 16 -1 16 8 0 18 -31 20 -48 3 -9 -9 -12 -9 -12 0 0 7
-11 12 -25 12 -23 0 -24 -2 -15 -20z"/>
</g>
</svg>
