<?xml version="1.0" standalone="no"?>
<!DOCTYPE svg PUBLIC "-//W3C//DTD SVG 20010904//EN"
 "http://www.w3.org/TR/2001/REC-SVG-20010904/DTD/svg10.dtd">
<svg version="1.0" xmlns="http://www.w3.org/2000/svg"
 width="446.000000pt" height="429.000000pt" viewBox="0 0 446.000000 429.000000"
 preserveAspectRatio="xMidYMid meet">
<metadata>
Created by potrace 1.16, written by Peter Selinger 2001-2019
</metadata>
<g transform="translate(0.000000,429.000000) scale(0.100000,-0.100000)"
fill="#000000" stroke="none">
<path d="M1963 4140 c-568 -86 -1062 -400 -1382 -879 -163 -243 -273 -530
-316 -822 -20 -140 -20 -433 1 -580 46 -329 179 -652 380 -919 355 -472 872
-755 1461 -802 888 -70 1715 454 2038 1291 45 115 89 285 111 426 22 144 22
430 1 577 -65 432 -249 805 -551 1117 -318 326 -706 525 -1158 591 -173 26
-415 26 -585 0z m1355 -954 c11 -62 13 -99 7 -105 -10 -9 -200 -80 -890 -331
-541 -197 -578 -211 -677 -262 -118 -60 -193 -124 -224 -193 l-24 -50 0 -508
c0 -448 -2 -508 -15 -514 -9 -3 -73 -2 -143 3 l-127 9 0 565 0 565 27 50 c41
79 136 159 266 224 56 28 170 71 702 266 85 31 259 95 385 142 127 47 316 116
420 153 105 38 206 76 225 84 19 8 39 11 43 6 5 -4 16 -51 25 -104z m46 -398
c13 -50 -6 -385 -24 -417 -4 -8 -135 -61 -291 -118 -156 -57 -394 -144 -529
-193 -135 -50 -252 -90 -260 -90 -13 0 -15 30 -12 222 1 122 3 222 5 224 1 1
97 36 212 77 318 114 733 265 800 292 77 30 91 30 99 3z m-114 -738 c0 -16
-69 -149 -109 -210 -52 -80 -211 -241 -296 -299 -107 -74 -255 -145 -407 -195
-73 -24 -145 -47 -160 -50 l-27 -6 -3 192 c-2 106 0 200 4 208 3 9 78 41 170
74 89 32 264 95 388 141 124 46 268 99 320 118 105 38 120 42 120 27z"/>
</g>
</svg>
